<?xml version="1.0" encoding="UTF-8"?>
<svg width="115.61mm" height="109.34mm" version="1.1" viewBox="0 0 115.61 109.34" xmlns="http://www.w3.org/2000/svg">
  <g transform="translate(784.9 283.36)">
    <path d="m-733.12-264.25c9.1043-0.19844 23.643-11.083 34.533-5.8155 22.191 10.734-1.2912 39.767-1.2515 47.241 0.0529 10.403-0.0926 26.72-7.202 34.454-5.0271 5.4663-8.6175 1.0795-7.8317-6.1436 0.6006-5.5219 2.2278-12.414-0.7329-18.074-3.4449-6.5881-9.0038-7.8317-15.655-5.506-15.251 5.3366-1.9262 27.207-8.3846 32.216-14.084-1.0822-13.518-24.866-13.708-36.221-0.0714-4.1804-5.4531-10.679-7.2284-15.833-4.8022-13.957-9.6996-27.067 7.3184-32.29 5.9928-1.8388 11.673-0.45508 16.341 2.9739 3.2967 2.4236 7.3342 6.7284 14.811 8.0962m-10.925 7.9322h11.89c2.8654 0 5.207 2.3442 5.207 5.207v11.922c0 2.8654-2.3442 5.207-5.207 5.207h-11.89c-2.8654 0-5.207-2.3442-5.207-5.207v-11.922c0-2.8654 2.3442-5.207 5.207-5.207zm-40.008 11.168h91.908m-45.953 8.2841v-16.571" fill="none" stroke="#324c5e" stroke-linecap="round" stroke-linejoin="round" stroke-miterlimit="22.926" stroke-width="3.7042"/>
  </g>
</svg>
