<?xml version="1.0" encoding="UTF-8"?>
<svg width="105.37mm" height="117.79mm" version="1.1" viewBox="0 0 105.37 117.79" xmlns="http://www.w3.org/2000/svg">
  <g transform="translate(580.67 355)">
    <path d="m-542.15-296.34v3.2861m26.352-3.2861v3.2861m-0.36248 19.198c0 5.3022-5.3102 9.5991-11.859 9.5991-6.5484 0-11.859-4.2968-11.859-9.5991m0 0h23.717m21.722-32.081c0.93927-0.54504 3.5534-0.93133 5.461-0.60325 2.5426 0.43656 3.6327 22.18-5.0588 20.685-1.606-0.27516-0.83344-0.21431-1.2065-0.41275-0.59002 4.9636-1.561 17.484-3.1168 20.569-3.3232 6.5855-19.915 16.637-29.064 16.637-9.1519 0-25.744-10.052-29.064-16.637-1.5558-3.085-2.5268-15.602-3.1168-20.569-0.37307 0.19844 0.39687 0.13759-1.2065 0.41275-8.6916 1.4949-7.6015-20.249-5.0562-20.685 1.9076-0.32808 4.5191 0.0582 5.4584 0.60325m65.14 5.6647c-0.78317-0.12436-1.6404-19.958-12.761-22.333-18.645 22.122-50.485-8.7021-52.057 19.772m64.818 2.5612c-1.3256-1.4261 2.5559-11.494 4.0296-13.801 6.5114-10.2-3.6592-22.937-12.925-14.814 3.9635-10.104-15.513-13.475-26.744-14.155-12.568-0.762-25.276 2.6696-32.126 8.8715-8.8424 8.0142-6.4267 14.195-0.23019 22.328 1.4658 1.9235 3.7227 11.205 3.7941 11.269" fill="none" stroke="#324c5e" stroke-linecap="round" stroke-linejoin="round" stroke-miterlimit="22.926" stroke-width="3.7042"/>
  </g>
</svg>
