<?xml version="1.0" encoding="UTF-8"?>
<svg width="115.48mm" height="115.48mm" version="1.1" viewBox="0 0 115.48 115.48" xmlns="http://www.w3.org/2000/svg">
  <g transform="translate(717.57 328.26)">
    <path d="m-642.39-287.98c-1.4975-1.4976-3.9291-1.4976-5.4266 0-1.4975 1.4975-1.4975 3.9264 0 5.4266 1.4975 1.4975 3.9264 1.4975 5.424 0 1.5002-1.4975 1.5002-3.9291 3e-3 -5.4266zm20.857-10.991c0.36777-2.077 2.3521-3.4634 4.4291-3.0956s3.4634 2.3521 3.0956 4.4291c-3.5269 15.214-14.703 12.3-23.675 21.167-4.1196 4.0719-10.57 3.9211-14.838 0-14.277-13.115-35.414 15.449-45.746 25.781-0.635 1.905-2.6511 3.0083-4.617 2.4844-2.0426-0.54504-3.257-2.6405-2.712-4.6831 1.8759-7.075 5.0747-15.841 10.224-22.278 4.7572-5.9478 10.882-10.395 16.936-12.314 10.499-3.3311 20.021-0.68527 25.916-6.5802 4.0984-4.0984 10.739-4.0984 14.838 0 5.9716 5.9716 14.801 2.7199 16.15-4.9107zm-27.929 26.435c3.8576 13.02-21.542 31.776-30.21 40.444-1.905 0.635-3.0083 2.6511-2.4871 4.617 0.54504 2.0426 2.6405 3.257 4.6831 2.7146 7.0776-1.8759 15.841-5.0747 22.278-10.224 5.9478-4.7572 10.395-10.882 12.316-16.936 2.4448-7.7047 0.92868-14.883 2.2781-20.487m0.32808-25.056c-0.90752-5.0879 3.1353-10.348 8.8847-11.366 2.077-0.36777 3.4634-2.3522 3.093-4.4291-0.36777-2.077-2.3522-3.4634-4.4291-3.0956-12.48 2.8919-11.835 10.935-16.097 18.685" fill="none" stroke="#324c5e" stroke-linecap="round" stroke-linejoin="round" stroke-miterlimit="22.926" stroke-width="3.7042"/>
  </g>
</svg>
