<?xml version="1.0" encoding="UTF-8"?>
<svg width="111.28mm" height="115.52mm" version="1.1" viewBox="0 0 111.28 115.52" xmlns="http://www.w3.org/2000/svg">
  <g transform="translate(-4.9156 -48.571)">
    <path d="m74.969 58.57c-3.9611 0-7.922 1.506-10.934 4.5176-5.5756 5.5756-5.9226 14.368-1.1758 20.428l-46.281 39.365a1.8523 1.8523 0 0 0-0.03516 0.0312c-2.2203 1.9897-2.0929 5.4169-0.07422 7.4356l2.1719 2.1719c2.0222 2.0222 5.4479 2.1467 7.4355-0.0723a1.8523 1.8523 0 0 0 0.03125-0.0371l39.369-46.279c6.0593 4.7458 14.851 4.3994 20.426-1.1758 6.0232-6.0232 6.0232-15.844 0-21.867-3.0116-3.0116-6.9725-4.5176-10.934-4.5176zm0 3.6816c3.0054 0 6.0106 1.1512 8.3145 3.4551 4.6078 4.6078 4.6078 12.021 0 16.629-4.6078 4.6078-12.021 4.6078-16.629 0-4.6078-4.6078-4.6078-12.021 0-16.629 2.3039-2.3039 5.3091-3.4551 8.3145-3.4551zm27.957 18.764a1.8521 1.8521 0 0 0-1.7109 1.9824l1.1582 15.889-17.461 3.4727a1.8521 1.8521 0 0 0-0.55664 0.83398 1.8523 1.8523 0 0 0-1.4492 0.30469l-46.314 39.396a1.8523 1.8523 0 0 0-0.03711 0.0312c-2.2203 1.9897-2.0909 5.4169-0.07227 7.4356l2.1719 2.1719c2.0222 2.0222 5.4479 2.1448 7.4355-0.0742a1.8523 1.8523 0 0 0 0.03125-0.0351l39.396-46.316a1.8523 1.8523 0 0 0 0.03516-0.16992 1.8521 1.8521 0 0 0 0.08203 0.0547l19.066-3.791a1.8523 1.8523 0 0 0 1.4844-1.9512l-1.2774-17.521a1.8521 1.8521 0 0 0-1.9824-1.7129zm-55.109 20.16-24.5 28.799c-0.46767 0.5221-1.4754 0.50706-2.0566-0.0742l-2.1719-2.1719c-0.58433-0.58433-0.60417-1.578-0.07422-2.0547 4.57e-4 -4.1e-4 -4.58e-4 -2e-3 0-2e-3zm20.016 20.006-24.502 28.807c-4.04e-4 4.5e-4 -0.0015-4.5e-4 -2e-3 0-0.4682 0.52073-1.4739 0.50656-2.0547-0.0742l-2.1719-2.1719c-0.58483-0.58483-0.60557-1.5824-0.07422-2.0586z" color="#000000" fill="#324c5e" stroke-linecap="round" stroke-linejoin="round" stroke-miterlimit="22.926" style="-inkscape-stroke:none"/>
  </g>
</svg>
