<svg enable-background="new 0 0 954 203" version="1.1" xml:space="preserve" xmlns="http://www.w3.org/2000/svg" xmlns:cc="http://creativecommons.org/ns#" xmlns:dc="http://purl.org/dc/elements/1.1/" xmlns:rdf="http://www.w3.org/1999/02/22-rdf-syntax-ns#" viewBox="35.44 30.94 897.57 154.09"><metadata><rdf:rdf><cc:work rdf:about=""><dc:format>image/svg+xml</dc:format><dc:type rdf:resource="http://purl.org/dc/dcmitype/StillImage"></dc:type><dc:title></dc:title></cc:work></rdf:rdf></metadata>      <polygon transform="translate(-18)" points="101.86 30.936 122.48 68.208 88.893 64.644" fill="#3164ad"></polygon>   <polygon transform="translate(-18)" points="76.122 63.289 53.445 60.881 101.86 30.936 56.557 148.73" fill="#2188c7"></polygon>   <polygon transform="translate(-18)" points="53.445 60.881 76.122 63.289 69.105 93.933" fill="#267bc0"></polygon>   <polygon transform="translate(-18)" points="79.264 89.682 56.557 148.73 91.226 102.1" fill="#3164ad"></polygon>   <polygon transform="translate(-18)" points="136.12 148.73 122.48 68.208 88.893 64.645 79.264 89.682" fill="#267bc0"></polygon>   <polygon transform="translate(-18)" points="122.48 68.208 136.12 148.73 150.28 65.622 101.86 30.936" fill="#2188c7"></polygon>   <polygon transform="translate(-18)" points="91.226 102.1 100.83 112.08 101.86 163.65 79.982 117.23" fill="#2188c7"></polygon>   <polygon transform="translate(-18)" points="100.83 112.08 101.86 163.65 114.98 126.78" fill="#3164ad"></polygon>     <g transform="matrix(.023839 .00040919 .00040919 -.023839 150.28 189.68)" fill="#08c"><path d="m26020 6658c-71-36-185-152-262-268-247-374-555-1168-683-1764-69-321-100-703-76-945l11-114-67-121c-36-67-115-205-175-307-59-102-108-193-108-202s10-28 23-43c19-21 29-26 49-21 27 7 33 17 256 396 48 82 63 100 68 85 47-138 152-268 259-320 56-27 68-29 175-29 105 0 121 3 192 31 158 64 350 220 504 409 42 53 78 94 80 92s8-47 14-101c26-231 88-376 214-502 59-58 99-89 146-111 202-94 383-73 592 68 76 52 254 223 352 339 338 399 554 810 669 1275 50 198 98 481 113 663 4 45 11 85 15 88 4 2 43-4 86-15 169-43 270-55 493-55 157 0 246 4 330 17 461 71 904 267 1480 653 397 267 544 371 553 392 7 16 5 28-7 47-23 35-62 32-134-10-276-165-1235-505-1745-619-281-63-399-79-617-80-193-1-293 8-392 35l-38 10v72c0 111-19 292-42 397-56 263-169 444-330 530-54 29-75 35-150 38-79 4-93 2-142-22-225-110-280-446-127-771 67-142 208-306 341-397 48-32 49-34 50-83 0-27-7-111-16-185-46-398-130-733-252-1005-191-422-604-942-837-1051-135-64-215 4-252 214-32 184 3 695 64 921 38 139 40 186 11 241-62 117-215 148-294 58-25-28-39-63-59-149-23-101-40-142-121-293-90-165-215-359-306-471-142-175-318-316-437-349-56-16-65-16-86-2-42 27-82 192-92 381l-6 110 65 115c447 789 781 1537 928 2078 91 338 92 487 4 590-51 60-99 82-176 82-45 0-76-6-108-22zm145-363c-33-371-256-969-670-1795-62-124-127-250-145-280l-31-55 6 70c64 715 465 1827 768 2129l61 61 8-30c5-16 6-61 3-100zm1744-42c41-82 63-179 86-378l5-49-39 38c-77 75-141 241-127 330 8 44 32 96 46 96 5 0 18-17 29-37z"></path><path d="m2540 6389c-488-56-1013-267-1417-570-276-208-603-525-765-742-62-84-70-115-38-147 39-39 63-27 128 63 130 180 393 426 652 612 403 289 859 475 1337 544 108 16 133 15 133-8 0-11-20-84-44-163-54-173-150-509-205-713-172-644-267-1304-296-2062-7-165-6-172 14-192 24-24 53-27 70-7 6 7 14 35 17 62 10 79 52 237 109 414 383 1176 485 1696 485 2473v217h33c81 0 309-34 434-65 391-96 745-271 955-473 168-162 261-334 325-602 35-146 43-397 18-555-55-352-234-664-580-1011-593-594-1345-973-2397-1208-367-82-661-122-848-114-98 4-115 8-173 37-66 34-99 35-111 6-10-26 11-61 64-107 105-92 259-153 485-193 126-23 467-31 635-16 784 72 1570 388 2175 874 590 474 952 993 1055 1512 28 141 38 408 20 567-24 220-107 486-207 665-172 307-468 555-857 718-212 89-440 152-656 181-115 15-427 17-550 3z"></path><path d="m9742 6098c-7-7-12-19-12-27-1-28-55-170-145-381-48-113-132-315-186-449s-102-247-106-251-116-22-248-39c-132-18-260-35-284-39-54-9-71-30-52-66 25-45 58-51 293-51 120 0 218-2 218-4s-34-107-75-232c-103-314-137-483-140-699l-3-165-48-37c-78-61-243-155-363-208-215-95-381-135-532-128-117 6-157 24-179 84-23 63-19 486 8 754 12 118 22 248 22 290 0 137-41 239-110 275-41 21-113 19-160-5-118-60-335-324-542-660-40-63-76-119-81-125-10-10-5 139 13 415 18 263 17 290-9 311-51 42-76 21-98-83-8-40-45-181-83-313-99-348-147-529-190-713-21-90-41-166-44-170-4-3-12 0-18 6-20 20-46 14-85-21-155-137-451-271-725-328-205-42-446-35-520 14-44 30-59 86-60 222 0 171 44 340 137 524l42 85 124 1c152 2 240 24 389 97 89 43 117 63 186 132 85 86 121 146 144 245 35 148-42 301-188 373-117 58-273 51-417-17-313-149-674-675-783-1140-22-93-26-134-26-265 0-175 13-247 66-357 39-81 156-204 235-246 118-63 306-84 458-52 264 56 511 200 900 524 60 50 112 91 115 91 4 0 5-35 2-77-3-68-1-84 20-123 61-114 215-147 291-62 10 10 51 97 93 193 196 453 335 718 505 969 85 125 163 218 155 185-19-75-79-394-96-510-27-182-37-413-21-497 36-183 159-318 354-390 108-40 264-49 383-23 96 20 234 85 329 152 98 70 255 224 350 342 44 55 84 99 88 98s23-39 41-84c46-115 91-185 167-262 108-109 224-166 362-177 214-19 482 130 813 449 122 117 116 116 128 26 9-65 56-157 105-206 129-129 308-130 574-3 176 84 352 205 535 369 56 50 102 90 102 88 0-3-32-134-70-292l-70-288-73-65c-138-126-419-408-491-492-374-441-588-841-661-1230-85-459 78-825 415-931 92-29 232-29 320 1 229 77 383 261 488 580 93 283 148 597 252 1430 71 569 102 757 251 1530 44 228 91 452 104 496 30 99 31 129 5 171-43 72-140 83-179 21-7-11-35-79-62-150-56-150-135-273-276-433-244-275-656-552-911-611-81-19-88-13-103 77-18 105 6 643 42 929 15 121 14 138-6 160-21 23-57 26-74 6-29-35-195-686-218-853l-16-121-32 5c-27 4-36 0-66-34-122-142-459-273-699-273-142 0-192 29-240 138-71 159-65 438 15 812 43 203 118 516 125 523 15 16 548 87 657 87 52 0 64 3 73 20 13 24 6 53-17 71-23 19-223 27-463 19-113-5-206-7-208-5-2 1 15 92 37 201 71 356 136 809 122 847-14 36-64 50-89 25zm-3774-1726c9-95-102-224-262-303-96-47-225-83-242-66-11 11 87 138 171 222 86 85 164 137 249 167 67 23 80 20 84-20zm5643-1714c-22-106-65-332-96-503-117-654-176-885-271-1066-60-115-143-186-235-203-48-9-65 12-85 105-44 207 31 611 183 984 61 148 201 423 280 547 92 145 257 364 261 345 2-8-15-102-37-209z"></path><path d="m31562 6085c-176-77-619-819-877-1469-120-302-181-549-192-770l-6-129-102-136c-57-75-153-199-214-276s-114-150-117-163c-8-28 29-72 61-72 28 0 44 18 225 250 83 107 155 196 159 198 4 1 12-24 19-57 26-125 107-271 186-336 111-91 264-119 419-76 168 46 370 170 585 358l60 53 16-66c35-139 111-245 211-295 40-19 66-24 125-24 65 0 84 5 140 32 74 37 184 132 321 278 161 170 167 181 129 223-35 38-64 29-114-37-65-84-138-146-220-186-136-67-244-68-265-2-30 92-38 254-20 415 9 83 17 112 59 202 124 267 130 385 24 478-113 100-235 73-297-65-27-62-68-213-87-324-13-77-41-127-129-239-189-238-516-478-698-512-54-10-65-9-88 6-62 41-106 210-107 413l-1 132 51 73c623 887 1002 1612 1002 1918-1 161-127 262-258 205zm-27-436c-79-303-249-707-435-1029-87-150-271-433-277-426-9 9 58 230 123 402 117 314 271 639 424 891 73 120 178 268 186 261 2-3-7-47-21-99z"></path><path d="m14702 5748c-5-7-17-51-26-98-10-47-34-137-56-200-51-154-269-712-284-726-6-7-98-19-211-28-256-22-264-23-277-52s11-71 45-79c12-3 106 3 210 13 103 10 187 17 187 15s-34-104-75-226c-122-363-165-562-165-759 0-147 19-236 72-347 57-116 144-203 261-261 80-40 94-43 186-48 60-3 119 0 152 8 70 16 218 85 311 145 75 49 285 207 326 245 29 27 29 74 0 94-33 23-41 21-100-30-78-67-170-119-278-155-85-29-107-33-210-33-100-1-122 2-166 22-103 47-135 106-142 262-4 114 12 257 54 470s136 635 143 641c3 4 137 15 296 24 160 9 298 21 308 26 23 13 22 54-3 79s-64 25-359 5c-118-8-216-13-218-12-1 2 10 75 26 163 16 87 37 218 45 289 21 171 45 495 38 514-15 45-67 67-90 39z"></path><path d="m32444 5201c-77-33-84-152-13-218 37-34 97-56 135-48 73 13 108 110 65 181-41 67-132 108-187 85z"></path><path d="m20455 4931c-97-44-390-407-692-858-64-95-117-172-119-170-1 1 7 54 17 117 45 271 60 534 37 612-26 87-110 114-186 58-118-85-348-361-537-645-47-70-88-139-92-153-9-37 8-75 41-87 34-12 30-16 154 172 115 174 232 320 369 462l112 116 1-36c0-49-33-230-80-430-42-184-222-863-245-929-8-23-15-62-15-85 0-78 76-155 154-155 66 0 96 26 155 136 29 54 89 167 133 249 99 184 262 457 370 619 128 192 251 367 254 363 2-2-12-65-31-141-67-266-80-366-80-616 0-208 2-231 23-300 99-316 361-486 637-415 158 41 280 129 503 361l158 166 52-70c95-128 217-188 364-180 140 8 291 100 492 300 60 60 110 107 110 106 1-2 7-33 13-71 32-194 160-321 337-334 139-10 287 61 487 232 112 96 399 401 399 424 0 30-33 64-63 64-19 0-45-18-88-57-71-66-178-140-269-186-147-74-356-140-447-140-41 0-42 1-50 38-4 20-8 136-7 257l1 220 55 115c129 269 182 474 147 567-13 34-55 80-91 99-56 29-134 10-172-41-13-18-16-16-65 27-70 63-143 90-246 90-44 0-109-7-144-16-348-90-803-612-878-1009-15-79-14-217 3-273 5-19-5-29-68-70-102-66-297-158-403-189-106-32-267-45-314-25-60 25-87 170-77 415 7 171 21 288 77 635 49 301 59 464 35 537-20 61-76 117-133 132-49 14-51 14-98-8zm2172-435c29-35 29-48-6-186-16-63-35-142-41-175-16-78-23-92-128-232-232-308-493-533-620-533-75 0-132 90-140 220-4 64 0 88 26 165 57 171 179 354 341 516 178 177 342 263 485 256 50-3 63-8 83-31z"></path><path d="m29340 4825c-306-62-573-301-726-652-33-77-34-78-71-78-55 0-66-30-71-187s9-262 54-398c108-326 315-467 630-430 365 44 687 288 864 655 91 187 130 341 130 507 0 182-42 290-160 409-127 129-288 190-492 188-51 0-122-7-158-14zm383-354c86-27 132-98 143-220 19-199-84-492-241-688-114-143-292-266-470-324-98-33-240-33-307-2-57 26-125 94-158 157-24 44-24 46-6 59 28 20 23 62-13 102-23 26-31 45-31 73 0 204 244 544 525 730 82 54 183 98 269 118 70 15 230 13 289-5z"></path><path d="m16318 4746c-331-119-702-559-851-1006-84-252-75-414 28-528 89-99 227-123 377-65 124 49 238 131 386 280 73 73 134 133 136 133 1 0 8-31 15-70 31-170 147-327 299-402 80-40 91-43 187-46 162-6 296 38 484 161 244 160 462 392 590 627 45 82 50 118 23 143-33 30-61 20-128-43-144-134-714-427-941-483-141-35-164-6-171 215-7 212 42 451 137 677 28 65 56 141 62 170 10 47 9 56-13 99-41 84-132 118-191 72l-26-20-33 28c-64 57-115 75-213 79-76 3-101 0-157-21zm282-284c29-23 25-43-33-143-135-237-420-580-598-720-80-64-203-139-227-139-17 0-8 48 30 165 122 367 423 734 683 831 74 28 116 30 145 6z"></path><path d="m13130 4745c-133-30-309-142-384-244-51-69-70-129-64-205 13-162 139-278 440-410 246-107 388-188 423-243 15-22 15-26-5-58-22-36-102-94-172-124-115-49-303-70-466-52s-236 37-283 77c-72 60-114 40-113-55 0-82 31-141 115-223 56-54 93-79 173-118 143-69 212-84 376-84 111 0 149 4 214 22 128 37 230 95 317 182 199 198 208 429 25 615-102 103-203 163-494 295-182 83-262 129-262 152 0 7 26 37 58 69 98 94 242 153 407 166 44 3 86 10 93 16 49 38-53 176-156 212-68 23-167 27-242 10z"></path></g></svg>
