<?xml version="1.0" encoding="UTF-8"?>
<svg width="114.99mm" height="114.05mm" version="1.1" viewBox="0 0 114.99 114.05" xmlns="http://www.w3.org/2000/svg">
  <g transform="translate(645.68 336.41)">
    <path d="m-624.59-282.46 36.494 48.252 36.42-48.252zm25.855 0h-1.6907l11.446 43.034 0.77787 3.429 0.0661-0.254 0.0661 0.254 0.77788-3.429 11.446-43.034m-48.744-0.60854 8.1042-15.084h57.862l6.9612 15.084m-56.041-15.081 6.4214 14.473c1.18 1.3256 0.7329 1.3256 1.9129 0l6.4214-14.473m9.6388 0 6.4214 14.473c1.18 1.3256 0.73289 1.3256 1.9129 0l6.4214-14.473m-19.833-26.408v11.364m-25.127-6.9903 4.8022 10.3m-25.114 2.6988 8.7048 7.3052m61.968-20.78-4.8022 10.3m25.411 2.3125-8.7048 7.3052" fill="none" stroke="#324c5e" stroke-linecap="round" stroke-linejoin="round" stroke-miterlimit="22.926" stroke-width="3.7042"/>
  </g>
</svg>
