<?xml version="1.0" encoding="UTF-8"?>
<svg width="115.09mm" height="114.64mm" version="1.1" viewBox="0 0 115.09 114.64" xmlns="http://www.w3.org/2000/svg">
  <g transform="translate(319.3 289.86)">
    <path d="m-234.99-213.41 18.92 18.92-7.4163 7.4163-19.039-19.039m-24.95-71.893c22.077 0 39.976 17.899 39.976 39.976 0 22.079-17.899 39.976-39.976 39.976s-39.976-17.896-39.976-39.976 17.899-39.976 39.976-39.976zm6.5484 7.3528c12.282 2.8019 22.098 12.089 25.649 24.066m-36.565-8.0169c5.334-0.11641 13.854-6.4955 20.235-3.4078 13.004 6.2918-0.75671 23.302-0.7329 27.683 0.0317 6.096-0.0529 15.658-4.2201 20.19-2.9448 3.2041-5.0509 0.63235-4.5905-3.601 0.35189-3.2359 1.307-7.2734-0.42863-10.591-2.0188-3.8603-5.2758-4.5905-9.1731-3.2253-8.9376 3.1274-1.1298 15.944-4.9133 18.878-8.2524-0.635-7.9216-14.571-8.0328-21.225-0.0423-2.45-3.1962-6.2574-4.236-9.2763-2.8152-8.1783-5.6832-15.862 4.2889-18.92 3.511-1.0769 6.8395-0.26723 9.5753 1.7436 1.9315 1.4208 4.2968 3.9423 8.6783 4.744" fill="none" stroke="#324c5e" stroke-linecap="round" stroke-linejoin="round" stroke-miterlimit="22.926" stroke-width="3.7042"/>
  </g>
</svg>
