<?xml version="1.0" encoding="UTF-8"?>
<svg width="100.08mm" height="114.3mm" version="1.1" viewBox="0 0 100.08 114.3" xmlns="http://www.w3.org/2000/svg">
  <g transform="translate(793.61 207.51)">
    <path d="m-749.46-188.39c9.1043-0.19843 23.646-11.081 34.533-5.8155 17.388 8.4111 6.7257 24.863 1.3891 34.777-3.4581 6.4241-4.2175 6.395-11.009 6.4426l-36.166 0.26194c-6.6225-0.53446-9.7552-0.35719-13.518-7.1543-5.8261-10.528-15.56-28.287 4.6276-34.48 5.9902-1.8388 11.673-0.45508 16.341 2.9739 3.2967 2.4236 7.3342 6.7284 14.811 8.0962m-19.415 31.115 4.4662 47.114h19.648l4.4688-47.114m4.6355 10.996h-37.851m36.581 12.046h-35.311m34.044 12.044h-32.774" fill="none" stroke="#324c5e" stroke-linecap="round" stroke-linejoin="round" stroke-miterlimit="22.926" stroke-width="3.7042"/>
  </g>
</svg>
