<?xml version="1.0" encoding="UTF-8"?>
<svg width="112.31mm" height="110.09mm" version="1.1" viewBox="0 0 112.31 110.09" xmlns="http://www.w3.org/2000/svg">
  <g transform="translate(73.157 29.669)">
    <path class="st6" d="m-22.244 6.9145c27.813-12.197 54.581-12.98 48.178 23.662-2.503 14.322-9.988 28.739 1.3652 37.997m-49.543-51.26c6.2521 0 11.319 5.0668 11.319 11.319s-5.0668 11.319-11.319 11.319-11.319-5.0668-11.319-11.319 5.0668-11.319 11.319-11.319zm32.475-10.398c4.1619 6.2098 6.5908 13.679 6.5908 21.717 0 21.574-17.489 39.063-39.063 39.063s-39.063-17.489-39.063-39.063c0-8.0354 2.4289-15.507 6.5908-21.717zm-39.087-23.426c12.099-3.2411 24.4-0.27517 33.517 6.9506l-59.071 15.827c4.2862-10.816 13.454-19.537 25.553-22.778zm6.6119 41.37c2.0849 0 3.773 1.688 3.773 3.773s-1.688 3.773-3.773 3.773c-2.0849 0-3.773-1.688-3.773-3.773s1.6907-3.773 3.773-3.773zm0-15.089c10.419 0 18.865 8.4455 18.865 18.862 0 10.419-8.4455 18.865-18.865 18.865-10.419 0-18.862-8.4455-18.862-18.865s8.4429-18.862 18.862-18.862z" fill="none" stroke="#324c5e" stroke-linecap="round" stroke-linejoin="round" stroke-miterlimit="22.926" stroke-width="3.7042"/>
  </g>
</svg>
