<?xml version="1.0" encoding="UTF-8"?>
<svg width="100.22mm" height="109.34mm" version="1.1" viewBox="0 0 100.22 109.34" xmlns="http://www.w3.org/2000/svg">
  <g transform="translate(792.37 249.62)">
    <path d="m-748.08-230.5c9.1043-0.19843 23.646-11.081 34.533-5.8155 22.188 10.732-1.2912 35.295-1.2515 42.773 0.0529 10.403-0.0952 31.194-7.202 38.926-5.0244 5.4636-8.6175 1.0795-7.8317-6.1436 0.60061-5.5219 2.2278-12.414-0.73289-18.074-3.4449-6.5881-9.0038-7.8317-15.655-5.506-15.251 5.3366-1.9262 27.207-8.3846 32.216-14.084-1.0822-13.518-29.337-13.708-40.69-0.0661-4.0005-27.461-35.195 0.0926-43.651 5.9928-1.8388 11.673-0.45508 16.341 2.9739 3.2967 2.4236 7.3342 6.7284 14.811 8.0962m22.545 30.17h-54.787" fill="none" stroke="#324c5e" stroke-linecap="round" stroke-linejoin="round" stroke-miterlimit="22.926" stroke-width="3.7042"/>
  </g>
</svg>
